<?xml version="1.0" encoding="UTF-8"?>
<svg xmlns:rdf="http://www.w3.org/1999/02/22-rdf-syntax-ns#" xmlns="http://www.w3.org/2000/svg" xmlns:cc="http://creativecommons.org/ns#" xmlns:dc="http://purl.org/dc/elements/1.1/" xmlns:svg="http://www.w3.org/2000/svg" xmlns:inkscape="http://www.inkscape.org/namespaces/inkscape" xmlns:sodipodi="http://sodipodi.sourceforge.net/DTD/sodipodi-0.dtd" xmlns:ns1="http://sozi.baierouge.fr" xmlns:xlink="http://www.w3.org/1999/xlink" id="svg2" viewBox="0 0 3000 3000" version="1.1">
  <rect id="rect5" height="3e3" width="3e3" y="0" x="0" fill="#0f6"/>
  <path id="path39" fill="#4f2b14" d="m2817.7 625.32-626.2 2374.7h84.025l619.25-2348.2-77.025-26.5z"/>
  <path id="path41" fill="#ccc" d="m2761 651.96c2.5547-31.125 185.93-394.66 197.18-390.89 11.25 3.75-22.688 417.28-36.492 444.63-13.805 27.375-163.24-22.617-160.69-53.742z"/>
  <path id="path45" fill="#999" d="m2947.1 284.84-121.57 389.55c34.172 19.852 85.922 34.312 92.883 17.742 10.148-24.211 34.383-376.12 28.688-407.3z"/>
  <path id="path7" fill="#fff" d="m1520.9 2453.2c-502.69 0-910.31 244.27-915.91 546.77h1832.2c-5.5781-302.51-413.58-546.77-916.24-546.77z"/>
  <path id="path9" d="m1430.7 429.19c-191.91 3.1172-378.8 60.586-526.97 163.34-211.9 146.93-352.12 372.73-411.26 663.21-2.7188 13.359-6.1641 31.734-8.0625 40.641-1.875 8.9062-5.6953 31.594-8.0625 50.531-2.3438 18.961-6.3516 50.273-9.1406 69.211-6.5625 44.484-6.6094 206.84 0 247.2 20.203 123.49 42.141 213.66 88.617 364.76 14.133 45.914 17.414 56.93 24.914 84.961 2.0859 7.8047 9.6328 35.156 16.477 60.797 44.016 164.95 47.883 278.65 13.898 386.34-24.844 78.844-64.172 139.27-141.7 216.42-55.61 55.4-118.4 139.1-159.34 223.4h374.25c9.7734-22.594 17.602-46.219 26.367-63.727 56.18-112.08 113.16-190.88 193.73-268.08 106.1-101.62 225.54-162.59 368.04-188.23 39.141-7.0547 161.65-8.2969 200.32-1.8281 210.98 35.226 391.29 147.75 535.41 333.98 42.516 54.938 80.789 119.58 115.36 187.88h787.71c-26.555-57.562-71.695-129.66-126.21-207.28-29.953-42.633-69.68-106.95-91.312-132.56-68.719-81.445-126.59-120.8-168.21-175.9-86.484-79.945-76.219-96.539-74.227-208.99 36.023-179.16 46.289-513.47 36.023-782.72 3.7735-78.609-0.4922-119.48-4.5234-161.02-14.227-146.77-42.07-234.87-99.609-349.73-45.586-90.961-102.94-169.41-178.36-244.62-84.328-84.141-166.08-142.57-275.74-196.66-133.59-65.906-260.79-99.375-416.02-109.5-27.539-1.7812-54.984-2.2734-82.406-1.8281z"/>
  <path id="path11" d="m1813.5 893.53c14.133 1.2188 28.195 3.9609 42.844 7.7109 148.59 37.992 275.55 201.91 310.92 401.37 10.383 58.641 11.273 147.89 1.8281 200.67-23.976 133.95-93.328 232.1-190.05 269.53-39.609 15.328-98.062 19.476-140.27 9.8906-100.69-22.875-200.65-111.8-261.47-232.92-29.578-58.875-58.805-155.11-58.594-192.61-4.4063-27.047-4.8984-30.07-7.3359-69.211-3.7266-13.898 1.8984-87.75 13.547-138.07 25.453-109.66 85.148-193.43 165.16-232.17 40.547-19.641 81.047-27.773 123.42-24.188z"/>
  <path id="path13" fill="#fff" d="m1179.2 893.53c42.375-3.5859 82.875 4.5469 123.42 24.188 79.922 38.672 139.45 122.51 164.79 231.8 17.203 85.758 11.25 207.26 4.4063 227.79-9.1875 69.914-48.984 170.2-93.398 235.48-60.562 89.039-145.59 152.84-226.66 169.92-72.328 15.258-140.2 0.3281-198.49-43.57-87.75-66.117-136.2-184.27-136.24-331.43-0.0234-238.97 139.5-460.57 318.98-506.46 14.648-3.75 29.086-6.4922 43.195-7.7109z"/>
  <path id="path15" fill="#333" d="m1521.2 563.23s-51.422 1268.6-19.031 1801.8c178.76 29.836 260.58 70.336 438.7 215.7 93.234 76.055 266.2 272.65 332.91 419.32h502.43c-46.852-72.281-139.55-212.02-161.86-238.41-28.476-33.727-67.008-78.984-85.336-100.71-58.219-69-145.27-167.18-180.54-213.87-37.336-36.891-33.586-62.859-32.226-112.43 3.3515-132.66 16.312-651.63 26.742-868.29 3.211-66.609 3.3985-93.703 0-128.91-12.047-124.36-35.836-210.28-84.609-307.62-38.602-77.086-86.977-143.53-150.87-207.28-71.461-71.297-140.72-120.8-233.65-166.62-113.2-55.828-352.66-92.648-352.66-92.648z"/>
  <path id="path17" fill="#fff" d="m1878.5 1782.3c-81.539-17.203-167.11-81.305-228.02-170.86-44.672-65.648-84.609-166.41-93.844-236.72-6.8907-20.648-12.984-142.92 4.289-229.17 25.5-109.92 85.617-194.41 165.98-233.32 54.375-26.297 108.38-31.664 167.34-16.57 416.88 90.492 431.16 973.97-15.75 886.64z"/>
  <path id="path19" fill="#ec0" d="m1417.3 1741-13.922 14.812c-27.68 29.344-87.352 49.359-179.09 59.906-100.78 11.578-228.91 5.3203-290.3-14.18-30.375-9.6563-38.602-7.9922-45.867 9.4922-22.898 55.195 24.984 159.73 137.55 300.3 71.391 89.156 177.54 196.31 243.94 246.35 25.852 19.477 57.375 34.852 86.766 42.305 23.906 6.0469 165.54 4.875 198.98-1.6406 11.133-2.1797 31.898-6.1406 46.102-8.8828 77.062-14.906 142.03-52.219 255.84-146.79 102.82-85.43 228.89-226.1 262.55-292.95 24.633-48.914 34.828-122.58 20.016-145.15-8.4844-12.961-12.024-13.148-44.578-2.7891-31.547 10.031-139.05 20.25-211.9 20.25-30.141 0-78.844-2.8125-108.28-6.3281-85.781-10.219-135.12-27.774-164.02-58.524l-15.211-16.195zm36.867 32.414c22.359 0 34.852 29.086 26.227 61.172-14.836 55.031-50.695 81.656-72.586 53.836-23.953-30.469 10.078-115.01 46.359-115.01zm84.867 0c24.891 0 54.844 47.367 54.844 86.766 0 33.938-25.781 49.57-50.156 30.398-20.086-15.797-37.781-62.578-33.07-87.656 3.2109-17.062 15.188-29.508 28.383-29.508z"/>
  <path id="path21" d="m1290.7 1429.1c0 100.97-75.188 182.81-167.91 182.81-92.742 0-167.91-81.844-167.91-182.81 0-100.99 75.164-182.84 167.91-182.84 92.719 0 167.91 81.844 167.91 182.84z"/>
  <path id="path23" fill="#fff" d="m1251.4 1357.5c0 44.25-32.953 80.109-73.57 80.109-40.641 0-73.594-35.859-73.594-80.109s32.953-80.109 73.594-80.109c40.617 0 73.57 35.859 73.57 80.109z"/>
  <path id="path25" d="m2042.7 1430.4c0 100.99-75.164 182.84-167.91 182.84-92.719 0-167.91-81.844-167.91-182.84 0-100.97 75.188-182.81 167.91-182.81 92.742 0 167.91 81.844 167.91 182.81z"/>
  <path id="path27" fill="#fff" d="m2006.2 1357.5c0 44.25-32.93 80.109-73.57 80.109-40.617 0-73.57-35.859-73.57-80.109s32.953-80.109 73.57-80.109c40.641 0 73.57 35.859 73.57 80.109z"/>
  <path id="path29" fill="#333" d="m1194.9 873.33c-5.25 0.0703-10.453 0.28125-15.75 0.72657-14.133 1.1953-28.547 3.9375-43.219 7.6875-137.67 35.23-251.65 173.96-297.28 344.56l640.31 133.07c6.8437-20.555 5.6477-143.62-11.532-229.38-25.359-109.29-84.867-193.12-164.79-231.82-35.484-17.156-70.992-25.477-107.67-24.891z"/>
  <path id="path31" d="m1825.4 873.33c5.25 0.0703 10.453 0.28125 15.75 0.72657 14.133 1.1953 28.547 3.9375 43.219 7.6875 137.74 35.227 251.72 173.98 297.35 344.6l-633.16 131.48c-6.8437-20.555-12.797-142.03 4.3828-227.79 25.359-109.29 84.867-193.12 164.79-231.82 35.484-17.156 70.992-25.477 107.67-24.891z"/>
  <path id="path43" fill="#ccc" d="m2909.3 760.34c-7.9453 30.117-51.75 41.672-97.828 25.805s-76.992-53.133-69.047-83.25c7.9453-30.117 51.726-41.672 97.805-25.805 46.078 15.867 76.992 53.133 69.07 83.25z"/>
  <path id="path33" fill="#ccc" d="m1435.5 409.36c-191.93 3.1172-378.82 60.562-526.99 163.31-211.88 146.93-352.1 372.75-411.26 663.21-0.72656 3.6328-1.3828 6.9375-2.1797 10.992h1984.9c-15.914-110.04-43.383-188.04-91.922-284.91-45.586-90.984-102.94-169.41-178.34-244.64-84.328-84.141-166.1-142.55-275.77-196.64-133.59-65.906-260.79-99.375-416.02-109.5-27.516-1.8047-54.984-2.2734-82.383-1.8281z"/>
  <path id="path35" fill="#b3b3b3" d="m1543.8 481.83v691.9h780.3c-13.336-91.383-36.352-156.16-77.016-236.63-38.18-75.539-86.25-140.67-149.44-203.16-70.664-69.867-139.15-118.38-231.05-163.31-104.39-51.023-204.33-78.492-322.8-88.805z"/>
  <path id="path37" fill="#f00" d="m1392.9 0h150.96v418.83h-150.96z"/>
  <path id="path131" fill="#d40000" d="m1480.5 19.477h43.828v365.27h-43.828z"/>
  <path id="path133" fill="#999" d="m477.68 1072.3 1032.1-293.07-5 511.37-1032.1-49.9z"/>
  <path id="path135" fill="#999" d="m2489.2 1072.3-986.8-293.07-12.6 511.37 1004.3-49.9z"/>
  <path id="path143" fill="#b3b3b3" d="m2323.6 1065.9-818.32-243.07 4.0312 424.05 818.32-41.367z"/>
  <path id="path3199" fill="#7f7f82" d="m964.4 2200.4c-181.45 1.2-626.13 112.9-964.4 228.7v570.9h1008.2c46.95-388.26 70.594-737.77 34.487-782.24-9.9122-12.204-37.44-17.598-78.339-17.342z"/>
  <path id="path47" fill="#7f0000" d="m879.9 2301.3c-165.25 1-585.05 107.2-879.9 210.9v487.75h914.5c42.279-337.08 64.346-645.67 32.6-684.1-8.5033-10.291-32.114-14.816-67.2-14.6z"/>
  <path id="path49" fill="#a80000" d="m784.12 2384.5c-93.27 0.4954-277.61 39.522-460.95 90.85l148.63 524.6h351.58c31.785-294.84 47.211-568.24 20.25-602.2-7.4414-9.3692-28.41-13.49-59.5-13.325z"/>
  <path id="path51" d="m465.38 2816.3c-12.111 0.1085-24.438 1.8231-36.7 5.3-68.051 19.27-109.47 85.798-96.225 151.57h261.92c4.922-20.428 4.8515-42.203-1.225-63.65-16.129-56.946-69.421-93.748-127.78-93.225z" stroke="#7f7f82" stroke-linecap="round" stroke-width="53.656" fill="#7f7f7f"/>
  <path id="path129" fill="#666" d="m465.05 2822.2c-4.0131 0.016-8.0334 0.2657-12.05 0.7249l50.65 176.58h67.55c16.212-37.445 14.858-82.494-7.25-119.68-22.239-37.404-60.107-57.78-98.9-57.625z"/>
  <path id="path53" transform="scale(.8)" fill="#007f00" d="m505.09 3211.5c-51.02 7.9-122.2 66.5-153.09 23.8-19.24 45-140.43 60.2-153.12 23.8-33.07 50.7-227.59 79.2-181.38 42.8-5.072-3.1-10.992-3.8-17.5-2.7v138.9c13.664 1.4 25.518 5.9 32.062 14.9 40.471-42.8 132.01-55.2 153.1-23.8 33.25-52.6 157.15-68.2 153.12-23.8 1.61-58.7 121.6-59 153.1-23.8 1.15-14.2 2.28-28.3 3.43-42.5 1.16-14.2 2.29-28.3 3.44-42.5s2.25-28.4 3.41-42.5c1.15-14.2 2.28-28.4 3.43-42.6z"/>
  <path id="path55" fill="#00a800" d="m403.58 2585.6c-40.84 6.3314-97.784 53.174-122.5 19.025-15.391 35.982-112.34 48.116-122.48 19-20.24 31-126.29 52.9-158.6 48.5v28.45c111.81-1.8122 373.88-45.749 398.08-46.95 0.89926-11.341 1.8273-22.685 2.75-34.025 0.89925-11.341 1.8273-22.685 2.75-34.025z"/>
  <path id="path57" fill="#007f00" d="m319.11 2590c37.905-16.763 110.54-7.9563 113.67-50.266 31.808 22.151 120.26-20.112 113.67-50.243 43.614 20.066 187.23-45.013 140.76-49.638 23.844-46.755 234.83 49.39 126.62 76.245 36.734-30.411-70.559-6.5934-73.423 32.443-45.278-11.451-112.49 19.82-113.67 50.266-44.484-21.248-134.94 21.877-113.67 50.243-25.561-39.06-107.04 12.71-113.64 50.267-6.6903-9.1196-13.382-18.216-20.072-27.335-6.6913-9.0961-13.382-18.216-20.072-27.335-6.6912-9.0961-13.382-18.216-20.096-27.313-6.6903-9.1196-13.382-18.216-20.072-27.335z"/>
  <path id="path59" fill="#00a800" d="m323.77 2605c37.88-16.74 110.54-7.9329 113.64-50.244 31.809 22.128 120.26-20.112 113.67-50.266 43.614 20.09 203.38-52.704 156.9-57.328 226.85-34.058-312.3 194.29-344.07 212.51-6.6903-9.1195-13.382-18.216-20.072-27.335-6.6912-9.0961-13.382-18.216-20.072-27.335z"/>
  <path id="path61" fill="#17260a" d="m334.54 2678.5 99.332-29.138 24.566 84.946-94.895 26.116z"/>
  <path id="path63" fill="#ebebeb" d="m378.3 2729.8 17.285 21.038-20.62 6.2776z"/>
  <path id="path65" fill="#ebebeb" d="m390.68 2729.2 17.285 21.038-20.62 6.2776z"/>
  <path id="path67" fill="#ebebeb" d="m406.66 2724.2 17.309 21.038-20.643 6.2767z"/>
  <path id="path69" fill="#ebebeb" d="m421.61 2721.1 17.285 21.038-20.62 6.2776z"/>
  <path id="path71" fill="#ebebeb" d="m444.75 2703.8 17.285 21.038-20.62 6.2776z"/>
  <path id="path73" fill="#ebebeb" d="m366.72 2732.2 17.285 21.038-20.643 6.2767z"/>
  <path id="path75" fill="#ebebeb" d="m435.64 2713.3 17.285 21.038-20.643 6.2767z"/>
  <path id="path77" fill="#144f14" d="m261.58 2653.5-124.65 49.733 108.15-69.216-131.48 25.832 124.86-49.279-127.66-0.1047 131.51-25.338-113.52-26.072 127.5 0.6381-90.164-49.93 113.12 26.573-59.486-69.711 89.609 50.355-24.026-83.846 58.84 70.039 13.405-91.222 23.267 84.075 49.758-91.179-14.158 91.287 82.054-83.762-50.435 91.107 107.71-69.561-82.633 83.553 124.65-49.709-108.15 69.216 131.48-25.855-124.89 49.278 127.68 0.1058-131.51 25.361z"/>
  <path id="path79" fill="#70c735" d="m289.58 2579.6-59.486-69.711 89.609 50.355-24.026-83.87 58.816 70.061 13.405-91.222 23.291 84.076 49.734-91.18-14.135 91.288z"/>
  <path id="path81" fill="#007f00" d="m379.97 2629.7c-21.015 6.1689-41.078 15.704-44.443 24.044-13.401 32.984 5.6856 100.53 34.22 121.2 14.427 10.445 87.93-11.112 94.707-27.789 13.376-32.962-5.7098-100.51-34.244-121.17-7.2135-5.2225-29.225-2.4455-50.24 3.7232zm3.4677 14.931c15.251-4.4876 31.182-6.4632 36.431-2.6287 20.722 15.14 34.682 64.502 25.02 88.575-4.8947 12.175-58.142 27.793-68.64 20.123-20.722-15.14-34.682-64.502-25.02-88.575 2.4352-6.076 16.983-13.03 32.21-17.495z"/>
  <path id="path83" fill="#ebebeb" d="m359.26 2692.8-17.285-21.038 20.62-6.2776z"/>
  <path id="path85" fill="#ebebeb" d="m380.14 2695-17.285-21.037 20.62-6.2776z"/>
  <path id="path87" fill="#ebebeb" d="m392.96 2686-17.285-21.038 20.62-6.2776z"/>
  <path id="path89" fill="#ebebeb" d="m410.64 2685.6-17.285-21.038 20.62-6.2776z"/>
  <path id="path91" fill="#ebebeb" d="m443.39 2675.4-17.285-21.038 20.62-6.2776z"/>
  <path id="path93" fill="#fff" d="m347.75 2702.4-17.285-21.038 20.62-6.2776z"/>
  <path id="path95" fill="#ebebeb" d="m426.66 2679.3-17.285-21.038 20.643-6.2766z"/>
  <path id="path97" fill="#007f00" d="m478.5 2561.1c-20.415 15.104 0.78709 86.834-45.075 95.72-45.13 8.7487-53.757 10.509-87.858 26.525-34.793 16.341-69.158-53.402-91.159-58.951-21.512-5.4365 0.49923-30.472 33.927-75.127 33.405-44.68 33.925-5.8199 64.715-15.582 30.79-9.7384 4.7735-40.512 58.468-23.394 53.672 17.094 87.71 35.483 66.982 50.81z"/>
  <path id="path99" fill="#215400" d="m434.29 2656.3c-45.106 8.7495-53.756 10.485-87.857 26.501-6.7595-61.707-9.3786-86.644-57.232-134.08 33.428-44.656 33.925-5.8199 64.738-15.557 30.791-9.7618 4.7744-40.536 58.445-23.419-8.4965 81.158 11.343 118.34 21.906 146.55z"/>
  <path id="path101" fill="#0f2800" d="m339.51 2575.4c3.7227 13.158-9.4331 28.561-29.381 34.419-19.971 5.8566-39.143-0.054-42.866-13.212-3.7227-13.158 9.4575-28.584 29.404-34.418 19.947-5.8575 39.143 0.054 42.842 13.212z"/>
  <path id="path103" fill="#fff" d="m331.99 2574.6c2.7102 9.5549-6.862 20.755-21.377 25.012-14.516 4.2574-28.448-0.047-31.158-9.6021-2.7092-9.5784 6.8629-20.778 21.378-25.036 14.492-4.2584 28.448 0.047 31.158 9.6255z"/>
  <path id="path105" fill="#f00" d="m327.73 2581.2c1.777 6.3297-4.9587 13.861-15.086 16.831-10.104 2.9706-19.757 0.2356-21.558-6.095-1.777-6.3297 4.9587-13.861 15.086-16.831 10.104-2.9707 19.758-0.2356 21.558 6.095z"/>
  <path id="path107" d="m317.68 2583.9c0.86997 3.0351-2.2214 6.6236-6.8696 7.9718-4.6725 1.3708-9.1474 0-9.9938-3.0294-0.86909-3.0585 2.2214-6.6237 6.8705-7.9953 4.6725-1.3708 9.1474 0 9.993 3.0529z"/>
  <path id="path109" fill="#0f2800" d="m345.51 2585.3c6.0701-9.1515-8.5725-21.95-29.284-25.621-20.736-3.6481-47.519 1.8563-53.589 11.031-6.07 9.1515 21.783 3.2656 42.518 6.9136 20.713 3.6471 34.285 16.827 40.355 7.6759z"/>
  <path id="path111" fill="#42781e" d="m330.29 2575.5c3.2021-7.1259-10.352-15.239-27.108-16.203-16.78-0.9648-36.739 5.197-39.965 12.322-3.203 7.1493 17.544 0.6185 34.323 1.6069 16.757 0.964 29.523 9.4228 32.75 2.2743z"/>
  <path id="path113" fill="#0f2800" d="m459.56 2541c3.7226 13.158-9.4332 28.562-29.381 34.419-19.971 5.8566-39.142-0.077-42.865-13.236-3.7235-13.135 9.4566-28.561 29.404-34.418 19.946-5.8341 39.142 0.078 42.842 13.235z"/>
  <path id="path115" fill="#fff" d="m392.8 2556.9c2.71 9.555 16.643 13.86 31.158 9.6021 14.516-4.2576 24.088-15.458 21.377-25.012-2.7092-9.5782-16.642-13.883-31.158-9.6254-14.516 4.2575-24.088 15.457-21.378 25.036z"/>
  <path id="path117" fill="#f00" d="m399.83 2560.1c1.8004 6.3306 11.454 9.0657 21.558 6.095 10.128-2.9698 16.887-10.5 15.087-16.854-1.777-6.3298-11.431-9.0415-21.559-6.0716-10.128 2.9697-16.863 10.501-15.086 16.831z"/>
  <path id="path119" d="m409.75 2557c0.8456 3.0576 5.3214 4.4002 9.9931 3.0529 4.649-1.3717 7.7404-4.9602 6.8705-7.9953-0.8457-3.0578-5.3205-4.4237-9.9931-3.0529-4.6491 1.3716-7.7405 4.9601-6.8705 7.9953z"/>
  <path id="path121" fill="#0f2800" d="m386.94 2573.3c-9.9388-4.4815-4.2072-23.262 11.44-37.562 15.648-14.324 41.211-24.166 51.128-19.709 9.9163 4.4571-16.737 14.587-32.385 28.91-15.647 14.3-20.266 32.818-30.183 28.361z"/>
  <path id="path123" fill="#42781e" d="m394.72 2556.7c-6.4276-4.3015 0.81977-18.521 14.494-28.416 13.698-9.9176 33.847-15.51 40.274-11.208 6.451 4.3024-14.523 10.027-28.221 19.921-13.698 9.9176-20.096 24.006-26.547 19.703z"/>
  <path id="path125" fill="#0f2800" d="m392.5 2648.9c0.85005 2.9406 0.30024 5.6873 5.2573 4.2335 4.9572-1.4537 8.2828-5.0333 7.4561-7.9731-0.82666-2.9396-5.5186-4.1496-10.476-2.6959-4.9572 1.4539-3.0644 3.4958-2.2378 6.4355z"/>
  <path id="path127" fill="#0f2800" d="m369.92 2656.5c0.82666 2.9397 2.7202 4.9583-2.2369 6.412-4.9572 1.4537-9.649 0.2438-10.476-2.6959-0.82666-2.9397 2.5223-6.5185 7.456-7.9731 4.9562-1.4304 4.4307 1.2938 5.2565 4.257z"/>
  <metadata>
    <rdf:RDF>
      <cc:Work>
        <dc:format>image/svg+xml</dc:format>
        <dc:type rdf:resource="http://purl.org/dc/dcmitype/StillImage"/>
        <cc:license rdf:resource="http://creativecommons.org/licenses/publicdomain/"/>
        <dc:publisher>
          <cc:Agent rdf:about="http://openclipart.org/">
            <dc:title>Openclipart</dc:title>
          </cc:Agent>
        </dc:publisher>
        <dc:title>roman soldier penguin</dc:title>
        <dc:date>2013-05-23T02:07:47</dc:date>
        <dc:description>A penguin in an outfit reminds us of tux from Linux fame.</dc:description>
        <dc:source>https://openclipart.org/detail/178503/roman-soldier-by-bartm-178503</dc:source>
        <dc:creator>
          <cc:Agent>
            <dc:title>BartM</dc:title>
          </cc:Agent>
        </dc:creator>
        <dc:subject>
          <rdf:Bag>
            <rdf:li>animal</rdf:li>
            <rdf:li>color</rdf:li>
            <rdf:li>linux</rdf:li>
            <rdf:li>penguin</rdf:li>
            <rdf:li>pet</rdf:li>
            <rdf:li>roman soldier</rdf:li>
            <rdf:li>tux</rdf:li>
          </rdf:Bag>
        </dc:subject>
      </cc:Work>
      <cc:License rdf:about="http://creativecommons.org/licenses/publicdomain/">
        <cc:permits rdf:resource="http://creativecommons.org/ns#Reproduction"/>
        <cc:permits rdf:resource="http://creativecommons.org/ns#Distribution"/>
        <cc:permits rdf:resource="http://creativecommons.org/ns#DerivativeWorks"/>
      </cc:License>
    </rdf:RDF>
  </metadata>
</svg>